<svg width="40" height="40" viewBox="0 0 40 40" fill="none" xmlns="http://www.w3.org/2000/svg">
<path fill="#CCCCCC" transform="matrix(1 0 0 1 3.75 3.75)" d="M16.25 17.5C21.0825 17.5 25 13.5825 25 8.75C25 3.9175 21.0825 0 16.25 0C11.4175 0 7.5 3.9175 7.5 8.75C7.5 13.5825 11.4175 17.5 16.25 17.5ZM16.25 15C12.7982 15 10 12.2018 10 8.75C10 5.2982 12.7982 2.5 16.25 2.5C19.7018 2.5 22.5 5.2982 22.5 8.75C22.5 12.2018 19.7018 15 16.25 15Z"/>
<path fill="#CCCCCC" transform="matrix(1 0 0 1 3.75 3.75)" d="M25 23.716C22.216 22.9244 19.2842 22.5 16.25 22.5C11.3335 22.5 6.6859 23.6143 2.5 25.5996L2.5 30L20 30L20 32.5L1.25 32.5C0.5596 32.5 0 31.9404 0 31.25L0 25.5616C0 24.6366 0.5075 23.7806 1.3422 23.3819C5.8735 21.2177 10.9163 20 16.25 20C19.2736 20 22.2036 20.3913 25 21.1245L25 23.716Z"/>
<path fill="#CCCCCC" transform="matrix(1 0 0 1 3.75 3.75)" d="M28.125 30.625L28.125 36.25L30.625 36.25L30.625 30.625L36.25 30.625L36.25 28.125L30.625 28.125L30.625 22.5L28.125 22.5L28.125 28.125L22.5 28.125L22.5 30.625L28.125 30.625Z"/>
</svg>
