<svg width="56" height="57" viewBox="0 0 56 57" fill="none" xmlns="http://www.w3.org/2000/svg">
<g id="&#231;&#188;&#150;&#231;&#187;&#132; 6">
<g id="&#231;&#188;&#150;&#231;&#187;&#132; 5">
<ellipse id="&#230;&#164;&#173;&#229;&#156;&#134;&#229;&#189;&#162;" cx="17.9664" cy="21.8535" rx="2.96644" ry="3" fill="#444444"/>
<ellipse id="&#230;&#164;&#173;&#229;&#156;&#134;&#229;&#189;&#162;_2" cx="38.0338" cy="21.8535" rx="2.96644" ry="3" fill="#444444"/>
</g>
<circle id="&#230;&#164;&#173;&#229;&#156;&#134;&#229;&#189;&#162;_3" cx="28" cy="28.8535" r="26" stroke="#444444" stroke-width="4"/>
<path id="&#232;&#183;&#175;&#229;&#190;&#132;" d="M17.1815 30.8535C17.5574 30.8535 17.8621 31.1582 17.8621 31.5341C17.8621 36.9785 22.426 41.3535 28 41.3535C33.4841 41.3535 37.9904 37.1185 38.1344 31.7967L38.1379 31.5341C38.1379 31.1582 38.4426 30.8535 38.8185 30.8535H41.3194C41.6953 30.8535 42 31.1582 42 31.5341C42 38.8689 35.757 44.8535 28 44.8535C20.3425 44.8535 14.1603 39.0214 14.0031 31.8155L14 31.5341C14 31.1582 14.3047 30.8535 14.6806 30.8535H17.1815Z" fill="#444444"/>
</g>
</svg>
