<svg width="52" height="40" viewBox="0 0 52 40" fill="none" xmlns="http://www.w3.org/2000/svg">
<path fill-rule="evenodd" clip-rule="evenodd" d="M48 0C50.2091 0 52 1.79086 52 4V29.4196L40.157 17.5765C38.2748 15.6944 35.3284 15.432 33.1492 16.9196L32.9472 17.0642L2.66865 39.7731C1.11402 39.2245 0 37.7424 0 36V4C0 1.79086 1.79086 0 4 0H48ZM13 16C15.2091 16 17 14.2091 17 12C17 9.79086 15.2091 8 13 8C10.7909 8 9 9.79086 9 12C9 14.2091 10.7909 16 13 16ZM9.03277 40H48C50.2091 40 52 38.2091 52 36V34.9779C51.8496 34.8917 51.7079 34.7844 51.5794 34.6559L37.3285 20.405L37.2179 20.3046C36.6836 19.8658 35.9105 19.8417 35.3472 20.2642L9.03277 40Z" fill="#5C6168"/>
</svg>
