<svg width="56" height="57" viewBox="0 0 56 57" fill="none" xmlns="http://www.w3.org/2000/svg">
<g id="&#231;&#188;&#150;&#231;&#187;&#132; 9&#229;&#164;&#135;&#228;&#187;&#189;">
<circle id="&#230;&#164;&#173;&#229;&#156;&#134;&#229;&#189;&#162;&#229;&#164;&#135;&#228;&#187;&#189; 25" cx="28" cy="29" r="26" stroke="#444444" stroke-width="4"/>
<g id="&#231;&#188;&#150;&#231;&#187;&#132; 15">
<path id="&#229;&#189;&#162;&#231;&#138;&#182;&#231;&#187;&#147;&#229;&#144;&#136;" fill-rule="evenodd" clip-rule="evenodd" d="M13.5 19C13.5 18.4477 13.9477 18 14.5 18H17.5C18.0523 18 18.5 18.4477 18.5 19V22C18.5 22.5523 18.0523 23 17.5 23H14.5C13.9477 23 13.5 22.5523 13.5 22V19ZM13.5 27C13.5 26.4477 13.9477 26 14.5 26H17.5C18.0523 26 18.5 26.4477 18.5 27V30C18.5 30.5523 18.0523 31 17.5 31H14.5C13.9477 31 13.5 30.5523 13.5 30V27ZM21 36C20.4477 36 20 36.4477 20 37V40C20 40.5523 20.4477 41 21 41H35C35.5523 41 36 40.5523 36 40V37C36 36.4477 35.5523 36 35 36H21ZM21.5 19C21.5 18.4477 21.9477 18 22.5 18H25.5C26.0523 18 26.5 18.4477 26.5 19V22C26.5 22.5523 26.0523 23 25.5 23H22.5C21.9477 23 21.5 22.5523 21.5 22V19ZM22.5 26C21.9477 26 21.5 26.4477 21.5 27V30C21.5 30.5523 21.9477 31 22.5 31H25.5C26.0523 31 26.5 30.5523 26.5 30V27C26.5 26.4477 26.0523 26 25.5 26H22.5ZM29.5 19C29.5 18.4477 29.9477 18 30.5 18H33.5C34.0523 18 34.5 18.4477 34.5 19V22C34.5 22.5523 34.0523 23 33.5 23H30.5C29.9477 23 29.5 22.5523 29.5 22V19ZM30.5 26C29.9477 26 29.5 26.4477 29.5 27V30C29.5 30.5523 29.9477 31 30.5 31H33.5C34.0523 31 34.5 30.5523 34.5 30V27C34.5 26.4477 34.0523 26 33.5 26H30.5ZM37.5 19C37.5 18.4477 37.9477 18 38.5 18H41.5C42.0523 18 42.5 18.4477 42.5 19V22C42.5 22.5523 42.0523 23 41.5 23H38.5C37.9477 23 37.5 22.5523 37.5 22V19ZM38.5 26C37.9477 26 37.5 26.4477 37.5 27V30C37.5 30.5523 37.9477 31 38.5 31H41.5C42.0523 31 42.5 30.5523 42.5 30V27C42.5 26.4477 42.0523 26 41.5 26H38.5Z" fill="#444444"/>
</g>
</g>
</svg>
