<svg width="56" height="57" viewBox="0 0 56 57" fill="none" xmlns="http://www.w3.org/2000/svg">
<g id="&#231;&#188;&#150;&#231;&#187;&#132; 9">
<circle id="&#230;&#164;&#173;&#229;&#156;&#134;&#229;&#189;&#162;&#229;&#164;&#135;&#228;&#187;&#189; 25" cx="28" cy="28.8535" r="26" stroke="#444444" stroke-width="4"/>
<g id="&#231;&#188;&#150;&#231;&#187;&#132;">
<path id="&#229;&#189;&#162;&#231;&#138;&#182;&#231;&#187;&#147;&#229;&#144;&#136;" fill-rule="evenodd" clip-rule="evenodd" d="M28.1966 12C32.4037 12 35.8142 15.5796 35.8142 19.9954V30.312C35.7872 34.7075 32.3846 38.2557 28.1966 38.2557H27.8034C23.5963 38.2557 20.1858 34.676 20.1858 30.2604V19.9438C20.2128 15.5482 23.6154 12 27.8034 12H28.1966ZM28.1966 16.103H27.8034C25.9145 16.103 24.3252 17.6967 24.2127 19.7382L24.2064 19.9438V30.2604C24.2064 32.3653 25.7387 34.0415 27.6147 34.1474L27.8034 34.1527H28.1966C30.0855 34.1527 31.6748 32.559 31.7873 30.5176L31.7936 30.312V19.9954C31.7936 17.8904 30.2614 16.2143 28.3853 16.1083L28.1966 16.103ZM17.0206 30.388C17.0206 29.9462 16.6624 29.588 16.2206 29.588H13.8C13.3582 29.588 13 29.9462 13 30.388V30.6927L13.0033 31.017C13.1725 39.3213 19.8219 46 28 46C36.2843 46 43 39.1467 43 30.6927V30.388C43 29.9462 42.6418 29.588 42.2 29.588H39.7794C39.3376 29.588 38.9794 29.9462 38.9794 30.388V30.6927L38.9757 30.9865C38.823 37.0387 33.9675 41.897 28 41.897C21.9363 41.897 17.0206 36.8807 17.0206 30.6927V30.388Z" fill="#444444"/>
</g>
</g>
</svg>
