<svg width="30" height="30" viewBox="0 0 30 30" fill="none" xmlns="http://www.w3.org/2000/svg">
  <path fill-rule="evenodd" clip-rule="evenodd" d="M4.543,5.486C3.322,5.486 2.33,6.478 2.33,7.699V22.301C2.33,23.522 3.322,24.514 4.543,24.514H21.284C22.505,24.514 23.497,23.522 23.497,22.301V7.699C23.497,6.478 22.505,5.486 21.284,5.486H4.543ZM6.394,9.869C6.082,9.869 5.829,10.122 5.829,10.434V16.23C5.829,16.542 6.082,16.795 6.394,16.795H8.947C9.259,16.795 9.512,16.542 9.512,16.23V10.434C9.512,10.122 9.259,9.869 8.947,9.869H6.394ZM25.23,18.63V11.433L29.426,8.59C29.768,8.387 30.202,8.634 30.202,9.032V21.101C30.202,21.506 29.755,21.753 29.413,21.541L25.23,18.63Z" fill="black" fill-opacity="0.55"/>
</svg>
