<svg width="52" height="42" viewBox="0 0 52 42" fill="none" xmlns="http://www.w3.org/2000/svg">
<path fill-rule="evenodd" clip-rule="evenodd" d="M3.79247 0C1.69795 0 0 1.69795 0 3.79247V38.2075C0 40.302 1.69795 42 3.79247 42H48.2075C50.3021 42 52 40.302 52 38.2075V3.79247C52 1.69795 50.3021 0 48.2075 0H3.79247ZM21.4203 29.0084L32.2475 22.205L32.2481 22.2063C32.4573 22.0748 32.6291 21.8959 32.7479 21.6857C32.8668 21.4755 32.929 21.2405 32.929 21.0017C32.929 20.763 32.8668 20.528 32.7479 20.3178C32.6291 20.1076 32.4573 19.9287 32.2481 19.7972L21.4209 12.9938C21.1924 12.8503 20.9274 12.7684 20.6539 12.7567C20.3804 12.7451 20.1088 12.8041 19.8677 12.9276C19.6267 13.0512 19.4253 13.2345 19.2849 13.4582C19.1445 13.682 19.0703 13.9377 19.0703 14.1983V27.8039C19.0704 28.0644 19.1445 28.32 19.2849 28.5437C19.4253 28.7673 19.6266 28.9506 19.8676 29.0742C20.1085 29.1977 20.3801 29.2567 20.6535 29.2452C20.9269 29.2336 21.1919 29.1518 21.4203 29.0084Z" fill="#5C6168"/>
</svg>
